                                                             <svg>     <circle cx = "557.500000" cy = "302.500000" r = "8.000000" fill = "white" stroke="yellow" stroke-width="1.000000" fill-opacity = "0.0"/>
<line x1="565.000000" y1="455.000000" x2="557.500000" y2="302.500000" stroke-width="1" stroke="black" />
<text x="561.250000" y="378.750000" font-family= "Verdana"  font-size="5">152.684315</text>
<circle cx = "287.500000" cy = "397.500000" r = "8.000000" fill = "white" stroke="yellow" stroke-width="1.000000" fill-opacity = "0.0"/>
<line x1="565.000000" y1="455.000000" x2="287.500000" y2="397.500000" stroke-width="1" stroke="black" />
<text x="426.250000" y="426.250000" font-family= "Verdana"  font-size="5">283.394601</text>
<circle cx = "422.500000" cy = "207.500000" r = "8.000000" fill = "white" stroke="yellow" stroke-width="1.000000" fill-opacity = "0.0"/>
<line x1="565.000000" y1="455.000000" x2="422.500000" y2="207.500000" stroke-width="1" stroke="black" />
<text x="493.750000" y="331.250000" font-family= "Verdana"  font-size="5">285.591491</text>
<line x1="38.000000" y1="38.000000" x2="785.000000" y2="38.000000" stroke-width="4" stroke="red" />
<line x1="131.800000" y1="45.090000" x2="131.800000" y2="33.450000" stroke-width="4" stroke="red" />
<circle cx = "131.800000" cy = "38.000000" r = "3" fill = "blue" stroke="blue" stroke-width="1" fill-opacity = "1"/>
<line x1="38.000000" y1="38.000000" x2="785.000000" y2="38.000000" stroke-width="4" stroke="red" />
<line x1="142.200000" y1="45.090000" x2="142.200000" y2="33.450000" stroke-width="4" stroke="red" />
<circle cx = "142.200000" cy = "38.000000" r = "3" fill = "blue" stroke="blue" stroke-width="1" fill-opacity = "1"/>
<line x1="38.000000" y1="38.000000" x2="785.000000" y2="38.000000" stroke-width="4" stroke="red" />
<line x1="115.800000" y1="45.090000" x2="115.800000" y2="33.450000" stroke-width="4" stroke="red" />
<circle cx = "115.800000" cy = "38.000000" r = "3" fill = "blue" stroke="blue" stroke-width="1" fill-opacity = "1"/>
<line x1="38.000000" y1="38.000000" x2="785.000000" y2="38.000000" stroke-width="4" stroke="red" />
<line x1="126.200000" y1="45.090000" x2="126.200000" y2="33.450000" stroke-width="4" stroke="red" />
<circle cx = "126.200000" cy = "38.000000" r = "3" fill = "blue" stroke="blue" stroke-width="1" fill-opacity = "1"/>
<line x1="38.000000" y1="38.000000" x2="785.000000" y2="38.000000" stroke-width="4" stroke="red" />
<line x1="99.800000" y1="45.090000" x2="99.800000" y2="33.450000" stroke-width="4" stroke="red" />
<circle cx = "99.800000" cy = "38.000000" r = "3" fill = "blue" stroke="blue" stroke-width="1" fill-opacity = "1"/>
<line x1="38.000000" y1="38.000000" x2="785.000000" y2="38.000000" stroke-width="4" stroke="red" />
<line x1="110.200000" y1="45.090000" x2="110.200000" y2="33.450000" stroke-width="4" stroke="red" />
<circle cx = "110.200000" cy = "38.000000" r = "3" fill = "blue" stroke="blue" stroke-width="1" fill-opacity = "1"/>
<line x1="38.000000" y1="38.000000" x2="785.000000" y2="38.000000" stroke-width="4" stroke="red" />
<line x1="83.800000" y1="45.090000" x2="83.800000" y2="33.450000" stroke-width="4" stroke="red" />
<circle cx = "83.800000" cy = "38.000000" r = "3" fill = "blue" stroke="blue" stroke-width="1" fill-opacity = "1"/>
<line x1="38.000000" y1="38.000000" x2="785.000000" y2="38.000000" stroke-width="4" stroke="red" />
<line x1="94.200000" y1="45.090000" x2="94.200000" y2="33.450000" stroke-width="4" stroke="red" />
<circle cx = "94.200000" cy = "38.000000" r = "3" fill = "blue" stroke="blue" stroke-width="1" fill-opacity = "1"/>
<line x1="38.000000" y1="38.000000" x2="785.000000" y2="38.000000" stroke-width="4" stroke="red" />
<line x1="67.800000" y1="45.090000" x2="67.800000" y2="33.450000" stroke-width="4" stroke="red" />
<circle cx = "67.800000" cy = "38.000000" r = "3" fill = "blue" stroke="blue" stroke-width="1" fill-opacity = "1"/>
<line x1="38.000000" y1="38.000000" x2="785.000000" y2="38.000000" stroke-width="4" stroke="red" />
<line x1="78.200000" y1="45.090000" x2="78.200000" y2="33.450000" stroke-width="4" stroke="red" />
<circle cx = "78.200000" cy = "38.000000" r = "3" fill = "blue" stroke="blue" stroke-width="1" fill-opacity = "1"/></svg>
